<?xml version="1.0" encoding="UTF-8" standalone="no"?>
<!DOCTYPE svg PUBLIC "-//W3C//DTD SVG 1.1//EN"
 "http://www.w3.org/Graphics/SVG/1.1/DTD/svg11.dtd">
<!-- Generated by graphviz version 2.49.3 (20211104.1129)
 -->
<!-- Title: snakemake_dag Pages: 1 -->
<svg width="2443pt" height="764pt"
 viewBox="0.00 0.00 2443.00 764.00" xmlns="http://www.w3.org/2000/svg" xmlns:xlink="http://www.w3.org/1999/xlink">
<g id="graph0" class="graph" transform="scale(1 1) rotate(0) translate(4 760)">
<title>snakemake_dag</title>
<polygon fill="white" stroke="transparent" points="-4,4 -4,-760 2439,-760 2439,4 -4,4"/>
<!-- 0 -->
<g id="node1" class="node">
<title>0</title>
<path fill="none" stroke="#d88d56" stroke-width="2" stroke-dasharray="5,2" d="M583,-36C583,-36 553,-36 553,-36 547,-36 541,-30 541,-24 541,-24 541,-12 541,-12 541,-6 547,0 553,0 553,0 583,0 583,0 589,0 595,-6 595,-12 595,-12 595,-24 595,-24 595,-30 589,-36 583,-36"/>
<text text-anchor="middle" x="568" y="-15.5" font-family="sans" font-size="10.00">all</text>
</g>
<!-- 1 -->
<g id="node2" class="node">
<title>1</title>
<path fill="none" stroke="#56d873" stroke-width="2" stroke-dasharray="5,2" d="M827,-684C827,-684 629,-684 629,-684 623,-684 617,-678 617,-672 617,-672 617,-660 617,-660 617,-654 623,-648 629,-648 629,-648 827,-648 827,-648 833,-648 839,-654 839,-660 839,-660 839,-672 839,-672 839,-678 833,-684 827,-684"/>
<text text-anchor="middle" x="728" y="-669" font-family="sans" font-size="10.00">get_pLDDT</text>
<text text-anchor="middle" x="728" y="-658" font-family="sans" font-size="10.00">pdb_name: AF&#45;A0A024RBG1&#45;F1&#45;model_v1</text>
</g>
<!-- 1&#45;&gt;0 -->
<g id="edge1" class="edge">
<title>1&#45;&gt;0</title>
<path fill="none" stroke="grey" stroke-width="2" d="M616.64,-654.64C412.71,-634.16 0,-585.05 0,-523 0,-523 0,-523 0,-161 0,-107.81 32.66,-96.25 80,-72 158.67,-31.7 430.27,-21.91 530.48,-19.65"/>
<polygon fill="grey" stroke="grey" stroke-width="2" points="530.81,-23.14 540.73,-19.43 530.66,-16.14 530.81,-23.14"/>
</g>
<!-- 4 -->
<g id="node5" class="node">
<title>4</title>
<path fill="none" stroke="#70d856" stroke-width="2" stroke-dasharray="5,2" d="M1274.5,-612C1274.5,-612 1141.5,-612 1141.5,-612 1135.5,-612 1129.5,-606 1129.5,-600 1129.5,-600 1129.5,-588 1129.5,-588 1129.5,-582 1135.5,-576 1141.5,-576 1141.5,-576 1274.5,-576 1274.5,-576 1280.5,-576 1286.5,-582 1286.5,-588 1286.5,-588 1286.5,-600 1286.5,-600 1286.5,-606 1280.5,-612 1274.5,-612"/>
<text text-anchor="middle" x="1208" y="-591.5" font-family="sans" font-size="10.00">combine_features_pdb_level</text>
</g>
<!-- 1&#45;&gt;4 -->
<g id="edge14" class="edge">
<title>1&#45;&gt;4</title>
<path fill="none" stroke="grey" stroke-width="2" d="M839.03,-648.81C924.27,-636.38 1040.39,-619.44 1119.44,-607.91"/>
<polygon fill="grey" stroke="grey" stroke-width="2" points="1119.99,-611.37 1129.38,-606.47 1118.98,-604.45 1119.99,-611.37"/>
</g>
<!-- 2 -->
<g id="node3" class="node">
<title>2</title>
<path fill="none" stroke="#5673d8" stroke-width="2" stroke-dasharray="5,2" d="M1289,-756C1289,-756 1127,-756 1127,-756 1121,-756 1115,-750 1115,-744 1115,-744 1115,-732 1115,-732 1115,-726 1121,-720 1127,-720 1127,-720 1289,-720 1289,-720 1295,-720 1301,-726 1301,-732 1301,-732 1301,-744 1301,-744 1301,-750 1295,-756 1289,-756"/>
<text text-anchor="middle" x="1208" y="-735.5" font-family="sans" font-size="10.00">download_dbNSFP_AlphaFold_files</text>
</g>
<!-- 2&#45;&gt;1 -->
<g id="edge10" class="edge">
<title>2&#45;&gt;1</title>
<path fill="none" stroke="grey" stroke-width="2" d="M1114.88,-723.42C1039.17,-712.38 931.77,-696.72 849.33,-684.69"/>
<polygon fill="grey" stroke="grey" stroke-width="2" points="849.81,-681.23 839.4,-683.25 848.8,-688.15 849.81,-681.23"/>
</g>
<!-- 3 -->
<g id="node4" class="node">
<title>3</title>
<path fill="none" stroke="#56d892" stroke-width="2" stroke-dasharray="5,2" d="M1663.5,-540C1663.5,-540 1510.5,-540 1510.5,-540 1504.5,-540 1498.5,-534 1498.5,-528 1498.5,-528 1498.5,-516 1498.5,-516 1498.5,-510 1504.5,-504 1510.5,-504 1510.5,-504 1663.5,-504 1663.5,-504 1669.5,-504 1675.5,-510 1675.5,-516 1675.5,-516 1675.5,-528 1675.5,-528 1675.5,-534 1669.5,-540 1663.5,-540"/>
<text text-anchor="middle" x="1587" y="-519.5" font-family="sans" font-size="10.00">graph_based_analysis_pdb_level</text>
</g>
<!-- 2&#45;&gt;3 -->
<g id="edge12" class="edge">
<title>2&#45;&gt;3</title>
<path fill="none" stroke="grey" stroke-width="2" d="M1301.37,-735.73C1395.57,-732.35 1532.06,-720.98 1568,-684 1602.4,-648.6 1598.58,-586.16 1592.77,-550.32"/>
<polygon fill="grey" stroke="grey" stroke-width="2" points="1596.15,-549.35 1590.94,-540.12 1589.26,-550.58 1596.15,-549.35"/>
</g>
<!-- 5 -->
<g id="node6" class="node">
<title>5</title>
<path fill="none" stroke="#c6d856" stroke-width="2" stroke-dasharray="5,2" d="M1547,-684C1547,-684 1349,-684 1349,-684 1343,-684 1337,-678 1337,-672 1337,-672 1337,-660 1337,-660 1337,-654 1343,-648 1349,-648 1349,-648 1547,-648 1547,-648 1553,-648 1559,-654 1559,-660 1559,-660 1559,-672 1559,-672 1559,-678 1553,-684 1547,-684"/>
<text text-anchor="middle" x="1448" y="-669" font-family="sans" font-size="10.00">get_protinter_interactions</text>
<text text-anchor="middle" x="1448" y="-658" font-family="sans" font-size="10.00">pdb_name: AF&#45;A0A024RBG1&#45;F1&#45;model_v1</text>
</g>
<!-- 2&#45;&gt;5 -->
<g id="edge17" class="edge">
<title>2&#45;&gt;5</title>
<path fill="none" stroke="grey" stroke-width="2" d="M1266.4,-719.97C1300.52,-710.01 1343.75,-697.41 1379.47,-686.99"/>
<polygon fill="grey" stroke="grey" stroke-width="2" points="1380.71,-690.27 1389.33,-684.11 1378.75,-683.55 1380.71,-690.27"/>
</g>
<!-- 6 -->
<g id="node7" class="node">
<title>6</title>
<path fill="none" stroke="#56a9d8" stroke-width="2" stroke-dasharray="5,2" d="M1067,-684C1067,-684 869,-684 869,-684 863,-684 857,-678 857,-672 857,-672 857,-660 857,-660 857,-654 863,-648 869,-648 869,-648 1067,-648 1067,-648 1073,-648 1079,-654 1079,-660 1079,-660 1079,-672 1079,-672 1079,-678 1073,-684 1067,-684"/>
<text text-anchor="middle" x="968" y="-669" font-family="sans" font-size="10.00">get_FEATURE_DSSP</text>
<text text-anchor="middle" x="968" y="-658" font-family="sans" font-size="10.00">pdb_name: AF&#45;A0A024RBG1&#45;F1&#45;model_v1</text>
</g>
<!-- 2&#45;&gt;6 -->
<g id="edge18" class="edge">
<title>2&#45;&gt;6</title>
<path fill="none" stroke="grey" stroke-width="2" d="M1149.6,-719.97C1115.48,-710.01 1072.25,-697.41 1036.53,-686.99"/>
<polygon fill="grey" stroke="grey" stroke-width="2" points="1037.25,-683.55 1026.67,-684.11 1035.29,-690.27 1037.25,-683.55"/>
</g>
<!-- 7 -->
<g id="node8" class="node">
<title>7</title>
<path fill="none" stroke="#d87556" stroke-width="2" stroke-dasharray="5,2" d="M1307,-684C1307,-684 1109,-684 1109,-684 1103,-684 1097,-678 1097,-672 1097,-672 1097,-660 1097,-660 1097,-654 1103,-648 1109,-648 1109,-648 1307,-648 1307,-648 1313,-648 1319,-654 1319,-660 1319,-660 1319,-672 1319,-672 1319,-678 1313,-684 1307,-684"/>
<text text-anchor="middle" x="1208" y="-669" font-family="sans" font-size="10.00">get_HSE</text>
<text text-anchor="middle" x="1208" y="-658" font-family="sans" font-size="10.00">pdb_name: AF&#45;A0A024RBG1&#45;F1&#45;model_v1</text>
</g>
<!-- 2&#45;&gt;7 -->
<g id="edge19" class="edge">
<title>2&#45;&gt;7</title>
<path fill="none" stroke="grey" stroke-width="2" d="M1208,-719.7C1208,-711.98 1208,-702.71 1208,-694.11"/>
<polygon fill="grey" stroke="grey" stroke-width="2" points="1211.5,-694.1 1208,-684.1 1204.5,-694.1 1211.5,-694.1"/>
</g>
<!-- 3&#45;&gt;0 -->
<g id="edge2" class="edge">
<title>3&#45;&gt;0</title>
<path fill="none" stroke="grey" stroke-width="2" d="M1675.75,-515.36C1893.21,-500.37 2435,-455.36 2435,-379 2435,-379 2435,-379 2435,-161 2435,-65.71 868.44,-25.85 605.3,-19.82"/>
<polygon fill="grey" stroke="grey" stroke-width="2" points="605.19,-16.32 595.11,-19.59 605.03,-23.32 605.19,-16.32"/>
</g>
<!-- 9 -->
<g id="node10" class="node">
<title>9</title>
<path fill="none" stroke="#59d856" stroke-width="2" stroke-dasharray="5,2" d="M1643.5,-468C1643.5,-468 1530.5,-468 1530.5,-468 1524.5,-468 1518.5,-462 1518.5,-456 1518.5,-456 1518.5,-444 1518.5,-444 1518.5,-438 1524.5,-432 1530.5,-432 1530.5,-432 1643.5,-432 1643.5,-432 1649.5,-432 1655.5,-438 1655.5,-444 1655.5,-444 1655.5,-456 1655.5,-456 1655.5,-462 1649.5,-468 1643.5,-468"/>
<text text-anchor="middle" x="1587" y="-453" font-family="sans" font-size="10.00">combine_pdb_level_files</text>
<text text-anchor="middle" x="1587" y="-442" font-family="sans" font-size="10.00">uniprot_id: A0A024RBG1</text>
</g>
<!-- 3&#45;&gt;9 -->
<g id="edge21" class="edge">
<title>3&#45;&gt;9</title>
<path fill="none" stroke="grey" stroke-width="2" d="M1587,-503.7C1587,-495.98 1587,-486.71 1587,-478.11"/>
<polygon fill="grey" stroke="grey" stroke-width="2" points="1590.5,-478.1 1587,-468.1 1583.5,-478.1 1590.5,-478.1"/>
</g>
<!-- 4&#45;&gt;3 -->
<g id="edge11" class="edge">
<title>4&#45;&gt;3</title>
<path fill="none" stroke="grey" stroke-width="2" d="M1286.53,-578.5C1345.08,-567.68 1425.46,-552.84 1488.35,-541.22"/>
<polygon fill="grey" stroke="grey" stroke-width="2" points="1489.09,-544.64 1498.29,-539.39 1487.82,-537.76 1489.09,-544.64"/>
</g>
<!-- 5&#45;&gt;4 -->
<g id="edge13" class="edge">
<title>5&#45;&gt;4</title>
<path fill="none" stroke="grey" stroke-width="2" d="M1389.6,-647.97C1355.48,-638.01 1312.25,-625.41 1276.53,-614.99"/>
<polygon fill="grey" stroke="grey" stroke-width="2" points="1277.25,-611.55 1266.67,-612.11 1275.29,-618.27 1277.25,-611.55"/>
</g>
<!-- 6&#45;&gt;4 -->
<g id="edge15" class="edge">
<title>6&#45;&gt;4</title>
<path fill="none" stroke="grey" stroke-width="2" d="M1026.4,-647.97C1060.52,-638.01 1103.75,-625.41 1139.47,-614.99"/>
<polygon fill="grey" stroke="grey" stroke-width="2" points="1140.71,-618.27 1149.33,-612.11 1138.75,-611.55 1140.71,-618.27"/>
</g>
<!-- 7&#45;&gt;4 -->
<g id="edge16" class="edge">
<title>7&#45;&gt;4</title>
<path fill="none" stroke="grey" stroke-width="2" d="M1208,-647.7C1208,-639.98 1208,-630.71 1208,-622.11"/>
<polygon fill="grey" stroke="grey" stroke-width="2" points="1211.5,-622.1 1208,-612.1 1204.5,-622.1 1211.5,-622.1"/>
</g>
<!-- 8 -->
<g id="node9" class="node">
<title>8</title>
<path fill="none" stroke="#56d8a9" stroke-width="2" stroke-dasharray="5,2" d="M288,-396C288,-396 152,-396 152,-396 146,-396 140,-390 140,-384 140,-384 140,-372 140,-372 140,-366 146,-360 152,-360 152,-360 288,-360 288,-360 294,-360 300,-366 300,-372 300,-372 300,-384 300,-384 300,-390 294,-396 288,-396"/>
<text text-anchor="middle" x="220" y="-375.5" font-family="sans" font-size="10.00">extract_clinvar_gnomad_sets</text>
</g>
<!-- 8&#45;&gt;0 -->
<g id="edge3" class="edge">
<title>8&#45;&gt;0</title>
<path fill="none" stroke="grey" stroke-width="2" d="M164.41,-359.88C110.88,-339.54 38,-299.92 38,-235 38,-235 38,-235 38,-161 38,-58.82 410.18,-28.18 530.77,-20.93"/>
<polygon fill="grey" stroke="grey" stroke-width="2" points="531.21,-24.41 540.99,-20.33 530.8,-17.42 531.21,-24.41"/>
</g>
<!-- 13 -->
<g id="node14" class="node">
<title>13</title>
<path fill="none" stroke="#56c9d8" stroke-width="2" stroke-dasharray="5,2" d="M243,-324C243,-324 197,-324 197,-324 191,-324 185,-318 185,-312 185,-312 185,-300 185,-300 185,-294 191,-288 197,-288 197,-288 243,-288 243,-288 249,-288 255,-294 255,-300 255,-300 255,-312 255,-312 255,-318 249,-324 243,-324"/>
<text text-anchor="middle" x="220" y="-303.5" font-family="sans" font-size="10.00">preprocess</text>
</g>
<!-- 8&#45;&gt;13 -->
<g id="edge26" class="edge">
<title>8&#45;&gt;13</title>
<path fill="none" stroke="grey" stroke-width="2" d="M220,-359.7C220,-351.98 220,-342.71 220,-334.11"/>
<polygon fill="grey" stroke="grey" stroke-width="2" points="223.5,-334.1 220,-324.1 216.5,-334.1 223.5,-334.1"/>
</g>
<!-- 9&#45;&gt;8 -->
<g id="edge20" class="edge">
<title>9&#45;&gt;8</title>
<path fill="none" stroke="grey" stroke-width="2" d="M1518.27,-445.48C1291.34,-433.86 565.87,-396.71 310.21,-383.62"/>
<polygon fill="grey" stroke="grey" stroke-width="2" points="310.39,-380.12 300.22,-383.11 310.03,-387.11 310.39,-380.12"/>
</g>
<!-- 11 -->
<g id="node12" class="node">
<title>11</title>
<path fill="none" stroke="#5692d8" stroke-width="2" stroke-dasharray="5,2" d="M2039.5,-180C2039.5,-180 1986.5,-180 1986.5,-180 1980.5,-180 1974.5,-174 1974.5,-168 1974.5,-168 1974.5,-156 1974.5,-156 1974.5,-150 1980.5,-144 1986.5,-144 1986.5,-144 2039.5,-144 2039.5,-144 2045.5,-144 2051.5,-150 2051.5,-156 2051.5,-156 2051.5,-168 2051.5,-168 2051.5,-174 2045.5,-180 2039.5,-180"/>
<text text-anchor="middle" x="2013" y="-159.5" font-family="sans" font-size="10.00">predict_alph</text>
</g>
<!-- 9&#45;&gt;11 -->
<g id="edge23" class="edge">
<title>9&#45;&gt;11</title>
<path fill="none" stroke="grey" stroke-width="2" d="M1655.78,-442.5C1831.3,-424.36 2288.3,-366.78 2378,-252 2387.85,-239.39 2388.47,-228.1 2378,-216 2337.7,-169.42 2151.84,-162.92 2061.95,-162.56"/>
<polygon fill="grey" stroke="grey" stroke-width="2" points="2061.75,-159.06 2051.74,-162.55 2061.74,-166.06 2061.75,-159.06"/>
</g>
<!-- 10 -->
<g id="node11" class="node">
<title>10</title>
<path fill="none" stroke="#d85656" stroke-width="2" stroke-dasharray="5,2" d="M1796,-108C1796,-108 1640,-108 1640,-108 1634,-108 1628,-102 1628,-96 1628,-96 1628,-84 1628,-84 1628,-78 1634,-72 1640,-72 1640,-72 1796,-72 1796,-72 1802,-72 1808,-78 1808,-84 1808,-84 1808,-96 1808,-96 1808,-102 1802,-108 1796,-108"/>
<text text-anchor="middle" x="1718" y="-87.5" font-family="sans" font-size="10.00">combine_all_proteins_to_one_file</text>
</g>
<!-- 10&#45;&gt;0 -->
<g id="edge4" class="edge">
<title>10&#45;&gt;0</title>
<path fill="none" stroke="grey" stroke-width="2" d="M1627.76,-83.51C1391.99,-69.16 764.79,-30.98 605.3,-21.27"/>
<polygon fill="grey" stroke="grey" stroke-width="2" points="605.25,-17.76 595.06,-20.65 604.83,-24.75 605.25,-17.76"/>
</g>
<!-- 11&#45;&gt;10 -->
<g id="edge22" class="edge">
<title>11&#45;&gt;10</title>
<path fill="none" stroke="grey" stroke-width="2" d="M1974.41,-146.57C1971.58,-145.66 1968.75,-144.79 1966,-144 1917.89,-130.23 1863.61,-118.24 1818.13,-109.16"/>
<polygon fill="grey" stroke="grey" stroke-width="2" points="1818.76,-105.72 1808.27,-107.21 1817.4,-112.58 1818.76,-105.72"/>
</g>
<!-- 12 -->
<g id="node13" class="node">
<title>12</title>
<path fill="none" stroke="#afd856" stroke-width="2" stroke-dasharray="5,2" d="M1271,-252C1271,-252 1191,-252 1191,-252 1185,-252 1179,-246 1179,-240 1179,-240 1179,-228 1179,-228 1179,-222 1185,-216 1191,-216 1191,-216 1271,-216 1271,-216 1277,-216 1283,-222 1283,-228 1283,-228 1283,-240 1283,-240 1283,-246 1277,-252 1271,-252"/>
<text text-anchor="middle" x="1231" y="-231.5" font-family="sans" font-size="10.00">write_final_model</text>
</g>
<!-- 12&#45;&gt;0 -->
<g id="edge8" class="edge">
<title>12&#45;&gt;0</title>
<path fill="none" stroke="grey" stroke-width="2" d="M1182.29,-215.96C1159.43,-206.91 1132.36,-194.62 1110,-180 1090.26,-167.09 1091.76,-155.2 1071,-144 911.52,-58.01 691.74,-29.96 605.18,-21.9"/>
<polygon fill="grey" stroke="grey" stroke-width="2" points="605.33,-18.4 595.05,-20.99 604.7,-25.37 605.33,-18.4"/>
</g>
<!-- 12&#45;&gt;11 -->
<g id="edge24" class="edge">
<title>12&#45;&gt;11</title>
<path fill="none" stroke="grey" stroke-width="2" d="M1283.26,-217.83C1286.54,-217.14 1289.8,-216.52 1293,-216 1585.37,-168.66 1670.54,-237.99 1964.18,-180.03"/>
<polygon fill="grey" stroke="grey" stroke-width="2" points="1965.15,-183.4 1974.27,-178 1963.78,-176.54 1965.15,-183.4"/>
</g>
<!-- 18 -->
<g id="node19" class="node">
<title>18</title>
<path fill="none" stroke="#5692d8" stroke-width="2" stroke-dasharray="5,2" d="M1374.5,-180C1374.5,-180 1321.5,-180 1321.5,-180 1315.5,-180 1309.5,-174 1309.5,-168 1309.5,-168 1309.5,-156 1309.5,-156 1309.5,-150 1315.5,-144 1321.5,-144 1321.5,-144 1374.5,-144 1374.5,-144 1380.5,-144 1386.5,-150 1386.5,-156 1386.5,-156 1386.5,-168 1386.5,-168 1386.5,-174 1380.5,-180 1374.5,-180"/>
<text text-anchor="middle" x="1348" y="-159.5" font-family="sans" font-size="10.00">predict_alph</text>
</g>
<!-- 12&#45;&gt;18 -->
<g id="edge45" class="edge">
<title>12&#45;&gt;18</title>
<path fill="none" stroke="grey" stroke-width="2" d="M1259.62,-215.88C1274.92,-206.72 1293.94,-195.34 1310.42,-185.48"/>
<polygon fill="grey" stroke="grey" stroke-width="2" points="1312.48,-188.33 1319.27,-180.19 1308.89,-182.32 1312.48,-188.33"/>
</g>
<!-- 20 -->
<g id="node21" class="node">
<title>20</title>
<path fill="none" stroke="#5692d8" stroke-width="2" stroke-dasharray="5,2" d="M1469.5,-180C1469.5,-180 1416.5,-180 1416.5,-180 1410.5,-180 1404.5,-174 1404.5,-168 1404.5,-168 1404.5,-156 1404.5,-156 1404.5,-150 1410.5,-144 1416.5,-144 1416.5,-144 1469.5,-144 1469.5,-144 1475.5,-144 1481.5,-150 1481.5,-156 1481.5,-156 1481.5,-168 1481.5,-168 1481.5,-174 1475.5,-180 1469.5,-180"/>
<text text-anchor="middle" x="1443" y="-159.5" font-family="sans" font-size="10.00">predict_alph</text>
</g>
<!-- 12&#45;&gt;20 -->
<g id="edge47" class="edge">
<title>12&#45;&gt;20</title>
<path fill="none" stroke="grey" stroke-width="2" d="M1283.18,-216.77C1313.43,-207.24 1352.46,-194.74 1394.68,-180.4"/>
<polygon fill="grey" stroke="grey" stroke-width="2" points="1395.97,-183.66 1404.31,-177.12 1393.72,-177.03 1395.97,-183.66"/>
</g>
<!-- 22 -->
<g id="node23" class="node">
<title>22</title>
<path fill="none" stroke="#5692d8" stroke-width="2" stroke-dasharray="5,2" d="M1564.5,-180C1564.5,-180 1511.5,-180 1511.5,-180 1505.5,-180 1499.5,-174 1499.5,-168 1499.5,-168 1499.5,-156 1499.5,-156 1499.5,-150 1505.5,-144 1511.5,-144 1511.5,-144 1564.5,-144 1564.5,-144 1570.5,-144 1576.5,-150 1576.5,-156 1576.5,-156 1576.5,-168 1576.5,-168 1576.5,-174 1570.5,-180 1564.5,-180"/>
<text text-anchor="middle" x="1538" y="-159.5" font-family="sans" font-size="10.00">predict_alph</text>
</g>
<!-- 12&#45;&gt;22 -->
<g id="edge49" class="edge">
<title>12&#45;&gt;22</title>
<path fill="none" stroke="grey" stroke-width="2" d="M1283.01,-218.38C1286.38,-217.55 1289.74,-216.74 1293,-216 1377.15,-196.85 1402.85,-202.82 1489.69,-180.13"/>
<polygon fill="grey" stroke="grey" stroke-width="2" points="1490.67,-183.49 1499.44,-177.53 1488.87,-176.72 1490.67,-183.49"/>
</g>
<!-- 24 -->
<g id="node25" class="node">
<title>24</title>
<path fill="none" stroke="#5692d8" stroke-width="2" stroke-dasharray="5,2" d="M1659.5,-180C1659.5,-180 1606.5,-180 1606.5,-180 1600.5,-180 1594.5,-174 1594.5,-168 1594.5,-168 1594.5,-156 1594.5,-156 1594.5,-150 1600.5,-144 1606.5,-144 1606.5,-144 1659.5,-144 1659.5,-144 1665.5,-144 1671.5,-150 1671.5,-156 1671.5,-156 1671.5,-168 1671.5,-168 1671.5,-174 1665.5,-180 1659.5,-180"/>
<text text-anchor="middle" x="1633" y="-159.5" font-family="sans" font-size="10.00">predict_alph</text>
</g>
<!-- 12&#45;&gt;24 -->
<g id="edge51" class="edge">
<title>12&#45;&gt;24</title>
<path fill="none" stroke="grey" stroke-width="2" d="M1283.3,-218.08C1286.57,-217.33 1289.82,-216.63 1293,-216 1418.57,-191.21 1456.55,-209.56 1584.69,-180.02"/>
<polygon fill="grey" stroke="grey" stroke-width="2" points="1585.55,-183.41 1594.48,-177.71 1583.94,-176.6 1585.55,-183.41"/>
</g>
<!-- 26 -->
<g id="node27" class="node">
<title>26</title>
<path fill="none" stroke="#5692d8" stroke-width="2" stroke-dasharray="5,2" d="M1754.5,-180C1754.5,-180 1701.5,-180 1701.5,-180 1695.5,-180 1689.5,-174 1689.5,-168 1689.5,-168 1689.5,-156 1689.5,-156 1689.5,-150 1695.5,-144 1701.5,-144 1701.5,-144 1754.5,-144 1754.5,-144 1760.5,-144 1766.5,-150 1766.5,-156 1766.5,-156 1766.5,-168 1766.5,-168 1766.5,-174 1760.5,-180 1754.5,-180"/>
<text text-anchor="middle" x="1728" y="-159.5" font-family="sans" font-size="10.00">predict_alph</text>
</g>
<!-- 12&#45;&gt;26 -->
<g id="edge53" class="edge">
<title>12&#45;&gt;26</title>
<path fill="none" stroke="grey" stroke-width="2" d="M1283.28,-217.97C1286.56,-217.25 1289.82,-216.58 1293,-216 1460.14,-185.57 1510.09,-216.53 1679.26,-180.08"/>
<polygon fill="grey" stroke="grey" stroke-width="2" points="1680.23,-183.45 1689.24,-177.88 1678.72,-176.61 1680.23,-183.45"/>
</g>
<!-- 28 -->
<g id="node29" class="node">
<title>28</title>
<path fill="none" stroke="#5692d8" stroke-width="2" stroke-dasharray="5,2" d="M1849.5,-180C1849.5,-180 1796.5,-180 1796.5,-180 1790.5,-180 1784.5,-174 1784.5,-168 1784.5,-168 1784.5,-156 1784.5,-156 1784.5,-150 1790.5,-144 1796.5,-144 1796.5,-144 1849.5,-144 1849.5,-144 1855.5,-144 1861.5,-150 1861.5,-156 1861.5,-156 1861.5,-168 1861.5,-168 1861.5,-174 1855.5,-180 1849.5,-180"/>
<text text-anchor="middle" x="1823" y="-159.5" font-family="sans" font-size="10.00">predict_alph</text>
</g>
<!-- 12&#45;&gt;28 -->
<g id="edge55" class="edge">
<title>12&#45;&gt;28</title>
<path fill="none" stroke="grey" stroke-width="2" d="M1283.27,-217.9C1286.55,-217.19 1289.81,-216.55 1293,-216 1501.91,-179.92 1563.64,-223.66 1774.43,-180.01"/>
<polygon fill="grey" stroke="grey" stroke-width="2" points="1775.2,-183.43 1784.26,-177.94 1773.75,-176.58 1775.2,-183.43"/>
</g>
<!-- 30 -->
<g id="node31" class="node">
<title>30</title>
<path fill="none" stroke="#5692d8" stroke-width="2" stroke-dasharray="5,2" d="M1944.5,-180C1944.5,-180 1891.5,-180 1891.5,-180 1885.5,-180 1879.5,-174 1879.5,-168 1879.5,-168 1879.5,-156 1879.5,-156 1879.5,-150 1885.5,-144 1891.5,-144 1891.5,-144 1944.5,-144 1944.5,-144 1950.5,-144 1956.5,-150 1956.5,-156 1956.5,-156 1956.5,-168 1956.5,-168 1956.5,-174 1950.5,-180 1944.5,-180"/>
<text text-anchor="middle" x="1918" y="-159.5" font-family="sans" font-size="10.00">predict_alph</text>
</g>
<!-- 12&#45;&gt;30 -->
<g id="edge57" class="edge">
<title>12&#45;&gt;30</title>
<path fill="none" stroke="grey" stroke-width="2" d="M1283.26,-217.86C1286.54,-217.16 1289.81,-216.53 1293,-216 1543.67,-174.28 1617.12,-230.83 1869.44,-179.99"/>
<polygon fill="grey" stroke="grey" stroke-width="2" points="1870.17,-183.41 1879.26,-177.97 1868.76,-176.55 1870.17,-183.41"/>
</g>
<!-- 32 -->
<g id="node33" class="node">
<title>32</title>
<path fill="none" stroke="#5692d8" stroke-width="2" stroke-dasharray="5,2" d="M765.5,-180C765.5,-180 712.5,-180 712.5,-180 706.5,-180 700.5,-174 700.5,-168 700.5,-168 700.5,-156 700.5,-156 700.5,-150 706.5,-144 712.5,-144 712.5,-144 765.5,-144 765.5,-144 771.5,-144 777.5,-150 777.5,-156 777.5,-156 777.5,-168 777.5,-168 777.5,-174 771.5,-180 765.5,-180"/>
<text text-anchor="middle" x="739" y="-159.5" font-family="sans" font-size="10.00">predict_alph</text>
</g>
<!-- 12&#45;&gt;32 -->
<g id="edge59" class="edge">
<title>12&#45;&gt;32</title>
<path fill="none" stroke="grey" stroke-width="2" d="M1178.72,-217.98C1175.44,-217.25 1172.18,-216.58 1169,-216 1004.1,-185.88 954.76,-216.15 787.87,-180.11"/>
<polygon fill="grey" stroke="grey" stroke-width="2" points="788.28,-176.61 777.76,-177.88 786.77,-183.45 788.28,-176.61"/>
</g>
<!-- 34 -->
<g id="node35" class="node">
<title>34</title>
<path fill="none" stroke="#5692d8" stroke-width="2" stroke-dasharray="5,2" d="M860.5,-180C860.5,-180 807.5,-180 807.5,-180 801.5,-180 795.5,-174 795.5,-168 795.5,-168 795.5,-156 795.5,-156 795.5,-150 801.5,-144 807.5,-144 807.5,-144 860.5,-144 860.5,-144 866.5,-144 872.5,-150 872.5,-156 872.5,-156 872.5,-168 872.5,-168 872.5,-174 866.5,-180 860.5,-180"/>
<text text-anchor="middle" x="834" y="-159.5" font-family="sans" font-size="10.00">predict_alph</text>
</g>
<!-- 12&#45;&gt;34 -->
<g id="edge61" class="edge">
<title>12&#45;&gt;34</title>
<path fill="none" stroke="grey" stroke-width="2" d="M1178.7,-218.09C1175.43,-217.34 1172.17,-216.63 1169,-216 1045.69,-191.52 1008.32,-209.18 882.53,-180.07"/>
<polygon fill="grey" stroke="grey" stroke-width="2" points="883.06,-176.6 872.52,-177.7 881.44,-183.41 883.06,-176.6"/>
</g>
<!-- 36 -->
<g id="node37" class="node">
<title>36</title>
<path fill="none" stroke="#5692d8" stroke-width="2" stroke-dasharray="5,2" d="M955.5,-180C955.5,-180 902.5,-180 902.5,-180 896.5,-180 890.5,-174 890.5,-168 890.5,-168 890.5,-156 890.5,-156 890.5,-150 896.5,-144 902.5,-144 902.5,-144 955.5,-144 955.5,-144 961.5,-144 967.5,-150 967.5,-156 967.5,-156 967.5,-168 967.5,-168 967.5,-174 961.5,-180 955.5,-180"/>
<text text-anchor="middle" x="929" y="-159.5" font-family="sans" font-size="10.00">predict_alph</text>
</g>
<!-- 12&#45;&gt;36 -->
<g id="edge63" class="edge">
<title>12&#45;&gt;36</title>
<path fill="none" stroke="grey" stroke-width="2" d="M1178.98,-218.4C1175.61,-217.56 1172.26,-216.75 1169,-216 1087.03,-197.15 1061.99,-202.48 977.35,-180.14"/>
<polygon fill="grey" stroke="grey" stroke-width="2" points="978.13,-176.73 967.57,-177.51 976.32,-183.49 978.13,-176.73"/>
</g>
<!-- 38 -->
<g id="node39" class="node">
<title>38</title>
<path fill="none" stroke="#5692d8" stroke-width="2" stroke-dasharray="5,2" d="M1050.5,-180C1050.5,-180 997.5,-180 997.5,-180 991.5,-180 985.5,-174 985.5,-168 985.5,-168 985.5,-156 985.5,-156 985.5,-150 991.5,-144 997.5,-144 997.5,-144 1050.5,-144 1050.5,-144 1056.5,-144 1062.5,-150 1062.5,-156 1062.5,-156 1062.5,-168 1062.5,-168 1062.5,-174 1056.5,-180 1050.5,-180"/>
<text text-anchor="middle" x="1024" y="-159.5" font-family="sans" font-size="10.00">predict_alph</text>
</g>
<!-- 12&#45;&gt;38 -->
<g id="edge65" class="edge">
<title>12&#45;&gt;38</title>
<path fill="none" stroke="grey" stroke-width="2" d="M1180.63,-215.97C1147.66,-204.82 1104.82,-190.33 1072.28,-179.33"/>
<polygon fill="grey" stroke="grey" stroke-width="2" points="1073.13,-175.92 1062.53,-176.03 1070.89,-182.55 1073.13,-175.92"/>
</g>
<!-- 40 -->
<g id="node41" class="node">
<title>40</title>
<path fill="none" stroke="#5692d8" stroke-width="2" stroke-dasharray="5,2" d="M1184.5,-180C1184.5,-180 1131.5,-180 1131.5,-180 1125.5,-180 1119.5,-174 1119.5,-168 1119.5,-168 1119.5,-156 1119.5,-156 1119.5,-150 1125.5,-144 1131.5,-144 1131.5,-144 1184.5,-144 1184.5,-144 1190.5,-144 1196.5,-150 1196.5,-156 1196.5,-156 1196.5,-168 1196.5,-168 1196.5,-174 1190.5,-180 1184.5,-180"/>
<text text-anchor="middle" x="1158" y="-159.5" font-family="sans" font-size="10.00">predict_alph</text>
</g>
<!-- 12&#45;&gt;40 -->
<g id="edge67" class="edge">
<title>12&#45;&gt;40</title>
<path fill="none" stroke="grey" stroke-width="2" d="M1212.96,-215.7C1203.94,-207.05 1192.88,-196.45 1183.06,-187.03"/>
<polygon fill="grey" stroke="grey" stroke-width="2" points="1185.48,-184.5 1175.84,-180.1 1180.63,-189.55 1185.48,-184.5"/>
</g>
<!-- 42 -->
<g id="node43" class="node">
<title>42</title>
<path fill="none" stroke="#5692d8" stroke-width="2" stroke-dasharray="5,2" d="M1279.5,-180C1279.5,-180 1226.5,-180 1226.5,-180 1220.5,-180 1214.5,-174 1214.5,-168 1214.5,-168 1214.5,-156 1214.5,-156 1214.5,-150 1220.5,-144 1226.5,-144 1226.5,-144 1279.5,-144 1279.5,-144 1285.5,-144 1291.5,-150 1291.5,-156 1291.5,-156 1291.5,-168 1291.5,-168 1291.5,-174 1285.5,-180 1279.5,-180"/>
<text text-anchor="middle" x="1253" y="-159.5" font-family="sans" font-size="10.00">predict_alph</text>
</g>
<!-- 12&#45;&gt;42 -->
<g id="edge69" class="edge">
<title>12&#45;&gt;42</title>
<path fill="none" stroke="grey" stroke-width="2" d="M1236.44,-215.7C1238.89,-207.9 1241.84,-198.51 1244.57,-189.83"/>
<polygon fill="grey" stroke="grey" stroke-width="2" points="1247.96,-190.69 1247.62,-180.1 1241.29,-188.59 1247.96,-190.69"/>
</g>
<!-- 13&#45;&gt;12 -->
<g id="edge25" class="edge">
<title>13&#45;&gt;12</title>
<path fill="none" stroke="grey" stroke-width="2" d="M255.19,-304.03C402.15,-299.84 968.01,-282.17 1168.61,-251.76"/>
<polygon fill="grey" stroke="grey" stroke-width="2" points="1169.41,-255.18 1178.74,-250.17 1168.32,-248.27 1169.41,-255.18"/>
</g>
<!-- 14 -->
<g id="node15" class="node">
<title>14</title>
<path fill="none" stroke="#d8ac56" stroke-width="2" stroke-dasharray="5,2" d="M670.5,-180C670.5,-180 395.5,-180 395.5,-180 389.5,-180 383.5,-174 383.5,-168 383.5,-168 383.5,-156 383.5,-156 383.5,-150 389.5,-144 395.5,-144 395.5,-144 670.5,-144 670.5,-144 676.5,-144 682.5,-150 682.5,-156 682.5,-156 682.5,-168 682.5,-168 682.5,-174 676.5,-180 670.5,-180"/>
<text text-anchor="middle" x="533" y="-165" font-family="sans" font-size="10.00">training_generate_grid</text>
<text text-anchor="middle" x="533" y="-154" font-family="sans" font-size="10.00">prefix: randomforest_1000_3_10_0.999999_0_0_0_90_0_0</text>
</g>
<!-- 13&#45;&gt;14 -->
<g id="edge27" class="edge">
<title>13&#45;&gt;14</title>
<path fill="none" stroke="grey" stroke-width="2" d="M218.46,-287.94C217.66,-267.8 219.71,-234.69 239,-216 250.65,-204.72 321.12,-191.8 390.14,-181.55"/>
<polygon fill="grey" stroke="grey" stroke-width="2" points="390.92,-184.97 400.31,-180.06 389.9,-178.05 390.92,-184.97"/>
</g>
<!-- 15 -->
<g id="node16" class="node">
<title>15</title>
<path fill="none" stroke="#d8ac56" stroke-width="2" stroke-dasharray="5,2" d="M353.5,-180C353.5,-180 78.5,-180 78.5,-180 72.5,-180 66.5,-174 66.5,-168 66.5,-168 66.5,-156 66.5,-156 66.5,-150 72.5,-144 78.5,-144 78.5,-144 353.5,-144 353.5,-144 359.5,-144 365.5,-150 365.5,-156 365.5,-156 365.5,-168 365.5,-168 365.5,-174 359.5,-180 353.5,-180"/>
<text text-anchor="middle" x="216" y="-165" font-family="sans" font-size="10.00">training_generate_grid</text>
<text text-anchor="middle" x="216" y="-154" font-family="sans" font-size="10.00">prefix: randomforest_2000_3_10_0.999999_0_0_0_90_0_0</text>
</g>
<!-- 13&#45;&gt;15 -->
<g id="edge28" class="edge">
<title>13&#45;&gt;15</title>
<path fill="none" stroke="grey" stroke-width="2" d="M214.18,-287.56C211.07,-277.33 207.57,-264.08 206,-252 203.31,-231.31 206.19,-207.87 209.54,-190.23"/>
<polygon fill="grey" stroke="grey" stroke-width="2" points="213.04,-190.58 211.63,-180.08 206.18,-189.17 213.04,-190.58"/>
</g>
<!-- 14&#45;&gt;0 -->
<g id="edge5" class="edge">
<title>14&#45;&gt;0</title>
<path fill="none" stroke="grey" stroke-width="2" d="M538.1,-143.88C541.12,-133.53 544.94,-120.05 548,-108 553.22,-87.41 558.47,-63.96 562.27,-46.3"/>
<polygon fill="grey" stroke="grey" stroke-width="2" points="565.78,-46.64 564.44,-36.13 558.93,-45.18 565.78,-46.64"/>
</g>
<!-- 16 -->
<g id="node17" class="node">
<title>16</title>
<path fill="none" stroke="#d8cb56" stroke-width="2" stroke-dasharray="5,2" d="M527.5,-108C527.5,-108 466.5,-108 466.5,-108 460.5,-108 454.5,-102 454.5,-96 454.5,-96 454.5,-84 454.5,-84 454.5,-78 460.5,-72 466.5,-72 466.5,-72 527.5,-72 527.5,-72 533.5,-72 539.5,-78 539.5,-84 539.5,-84 539.5,-96 539.5,-96 539.5,-102 533.5,-108 527.5,-108"/>
<text text-anchor="middle" x="497" y="-87.5" font-family="sans" font-size="10.00">join_grid_files</text>
</g>
<!-- 14&#45;&gt;16 -->
<g id="edge29" class="edge">
<title>14&#45;&gt;16</title>
<path fill="none" stroke="grey" stroke-width="2" d="M524.1,-143.7C520,-135.73 515.05,-126.1 510.51,-117.26"/>
<polygon fill="grey" stroke="grey" stroke-width="2" points="513.48,-115.4 505.8,-108.1 507.26,-118.6 513.48,-115.4"/>
</g>
<!-- 15&#45;&gt;0 -->
<g id="edge6" class="edge">
<title>15&#45;&gt;0</title>
<path fill="none" stroke="grey" stroke-width="2" d="M258.46,-143.87C328.03,-115.81 465.13,-60.5 530.98,-33.93"/>
<polygon fill="grey" stroke="grey" stroke-width="2" points="532.58,-37.06 540.54,-30.08 529.96,-30.57 532.58,-37.06"/>
</g>
<!-- 15&#45;&gt;16 -->
<g id="edge30" class="edge">
<title>15&#45;&gt;16</title>
<path fill="none" stroke="grey" stroke-width="2" d="M284.38,-143.97C333.62,-131.7 399.07,-115.4 444.28,-104.13"/>
<polygon fill="grey" stroke="grey" stroke-width="2" points="445.32,-107.48 454.18,-101.67 443.63,-100.69 445.32,-107.48"/>
</g>
<!-- 16&#45;&gt;0 -->
<g id="edge7" class="edge">
<title>16&#45;&gt;0</title>
<path fill="none" stroke="grey" stroke-width="2" d="M514.55,-71.7C523.23,-63.14 533.86,-52.66 543.35,-43.3"/>
<polygon fill="grey" stroke="grey" stroke-width="2" points="545.99,-45.62 550.65,-36.1 541.07,-40.63 545.99,-45.62"/>
</g>
<!-- 17 -->
<g id="node18" class="node">
<title>17</title>
<path fill="none" stroke="#8fd856" stroke-width="2" stroke-dasharray="5,2" d="M1349,-108C1349,-108 1251,-108 1251,-108 1245,-108 1239,-102 1239,-96 1239,-96 1239,-84 1239,-84 1239,-78 1245,-72 1251,-72 1251,-72 1349,-72 1349,-72 1355,-72 1361,-78 1361,-84 1361,-84 1361,-96 1361,-96 1361,-102 1355,-108 1349,-108"/>
<text text-anchor="middle" x="1300" y="-87.5" font-family="sans" font-size="10.00">create_validation_set</text>
</g>
<!-- 17&#45;&gt;0 -->
<g id="edge9" class="edge">
<title>17&#45;&gt;0</title>
<path fill="none" stroke="grey" stroke-width="2" d="M1238.85,-83.15C1092.09,-69.12 723.35,-33.86 605.11,-22.55"/>
<polygon fill="grey" stroke="grey" stroke-width="2" points="605.39,-19.06 595.1,-21.59 604.72,-26.03 605.39,-19.06"/>
</g>
<!-- 18&#45;&gt;17 -->
<g id="edge31" class="edge">
<title>18&#45;&gt;17</title>
<path fill="none" stroke="grey" stroke-width="2" d="M1336.13,-143.7C1330.5,-135.47 1323.65,-125.48 1317.43,-116.42"/>
<polygon fill="grey" stroke="grey" stroke-width="2" points="1320.27,-114.37 1311.73,-108.1 1314.5,-118.33 1320.27,-114.37"/>
</g>
<!-- 19 -->
<g id="node20" class="node">
<title>19</title>
<path fill="none" stroke="#59d856" stroke-width="2" stroke-dasharray="5,2" d="M1426.5,-252C1426.5,-252 1313.5,-252 1313.5,-252 1307.5,-252 1301.5,-246 1301.5,-240 1301.5,-240 1301.5,-228 1301.5,-228 1301.5,-222 1307.5,-216 1313.5,-216 1313.5,-216 1426.5,-216 1426.5,-216 1432.5,-216 1438.5,-222 1438.5,-228 1438.5,-228 1438.5,-240 1438.5,-240 1438.5,-246 1432.5,-252 1426.5,-252"/>
<text text-anchor="middle" x="1370" y="-237" font-family="sans" font-size="10.00">combine_pdb_level_files</text>
<text text-anchor="middle" x="1370" y="-226" font-family="sans" font-size="10.00">uniprot_id: P01112</text>
</g>
<!-- 19&#45;&gt;18 -->
<g id="edge44" class="edge">
<title>19&#45;&gt;18</title>
<path fill="none" stroke="grey" stroke-width="2" d="M1364.56,-215.7C1362.11,-207.9 1359.16,-198.51 1356.43,-189.83"/>
<polygon fill="grey" stroke="grey" stroke-width="2" points="1359.71,-188.59 1353.38,-180.1 1353.04,-190.69 1359.71,-188.59"/>
</g>
<!-- 20&#45;&gt;17 -->
<g id="edge32" class="edge">
<title>20&#45;&gt;17</title>
<path fill="none" stroke="grey" stroke-width="2" d="M1408.02,-143.88C1388.8,-134.47 1364.77,-122.71 1344.26,-112.67"/>
<polygon fill="grey" stroke="grey" stroke-width="2" points="1345.64,-109.44 1335.12,-108.19 1342.56,-115.73 1345.64,-109.44"/>
</g>
<!-- 21 -->
<g id="node22" class="node">
<title>21</title>
<path fill="none" stroke="#59d856" stroke-width="2" stroke-dasharray="5,2" d="M1581.5,-252C1581.5,-252 1468.5,-252 1468.5,-252 1462.5,-252 1456.5,-246 1456.5,-240 1456.5,-240 1456.5,-228 1456.5,-228 1456.5,-222 1462.5,-216 1468.5,-216 1468.5,-216 1581.5,-216 1581.5,-216 1587.5,-216 1593.5,-222 1593.5,-228 1593.5,-228 1593.5,-240 1593.5,-240 1593.5,-246 1587.5,-252 1581.5,-252"/>
<text text-anchor="middle" x="1525" y="-237" font-family="sans" font-size="10.00">combine_pdb_level_files</text>
<text text-anchor="middle" x="1525" y="-226" font-family="sans" font-size="10.00">uniprot_id: P04637</text>
</g>
<!-- 21&#45;&gt;20 -->
<g id="edge46" class="edge">
<title>21&#45;&gt;20</title>
<path fill="none" stroke="grey" stroke-width="2" d="M1504.73,-215.7C1494.5,-206.97 1481.94,-196.24 1470.82,-186.75"/>
<polygon fill="grey" stroke="grey" stroke-width="2" points="1472.91,-183.94 1463.04,-180.1 1468.37,-189.26 1472.91,-183.94"/>
</g>
<!-- 22&#45;&gt;17 -->
<g id="edge33" class="edge">
<title>22&#45;&gt;17</title>
<path fill="none" stroke="grey" stroke-width="2" d="M1499.35,-146.76C1496.53,-145.8 1493.73,-144.87 1491,-144 1451.74,-131.47 1407.42,-119.07 1371.36,-109.42"/>
<polygon fill="grey" stroke="grey" stroke-width="2" points="1371.99,-105.96 1361.42,-106.77 1370.19,-112.72 1371.99,-105.96"/>
</g>
<!-- 23 -->
<g id="node24" class="node">
<title>23</title>
<path fill="none" stroke="#59d856" stroke-width="2" stroke-dasharray="5,2" d="M1736.5,-252C1736.5,-252 1623.5,-252 1623.5,-252 1617.5,-252 1611.5,-246 1611.5,-240 1611.5,-240 1611.5,-228 1611.5,-228 1611.5,-222 1617.5,-216 1623.5,-216 1623.5,-216 1736.5,-216 1736.5,-216 1742.5,-216 1748.5,-222 1748.5,-228 1748.5,-228 1748.5,-240 1748.5,-240 1748.5,-246 1742.5,-252 1736.5,-252"/>
<text text-anchor="middle" x="1680" y="-237" font-family="sans" font-size="10.00">combine_pdb_level_files</text>
<text text-anchor="middle" x="1680" y="-226" font-family="sans" font-size="10.00">uniprot_id: P05067</text>
</g>
<!-- 23&#45;&gt;22 -->
<g id="edge48" class="edge">
<title>23&#45;&gt;22</title>
<path fill="none" stroke="grey" stroke-width="2" d="M1645.26,-215.88C1626.18,-206.47 1602.32,-194.71 1581.95,-184.67"/>
<polygon fill="grey" stroke="grey" stroke-width="2" points="1583.39,-181.47 1572.87,-180.19 1580.29,-187.75 1583.39,-181.47"/>
</g>
<!-- 24&#45;&gt;17 -->
<g id="edge34" class="edge">
<title>24&#45;&gt;17</title>
<path fill="none" stroke="grey" stroke-width="2" d="M1594.43,-146.48C1591.6,-145.59 1588.76,-144.75 1586,-144 1513.94,-124.43 1429.7,-109.79 1371.4,-100.91"/>
<polygon fill="grey" stroke="grey" stroke-width="2" points="1371.6,-97.4 1361.19,-99.37 1370.55,-104.32 1371.6,-97.4"/>
</g>
<!-- 25 -->
<g id="node26" class="node">
<title>25</title>
<path fill="none" stroke="#59d856" stroke-width="2" stroke-dasharray="5,2" d="M1891.5,-252C1891.5,-252 1778.5,-252 1778.5,-252 1772.5,-252 1766.5,-246 1766.5,-240 1766.5,-240 1766.5,-228 1766.5,-228 1766.5,-222 1772.5,-216 1778.5,-216 1778.5,-216 1891.5,-216 1891.5,-216 1897.5,-216 1903.5,-222 1903.5,-228 1903.5,-228 1903.5,-240 1903.5,-240 1903.5,-246 1897.5,-252 1891.5,-252"/>
<text text-anchor="middle" x="1835" y="-237" font-family="sans" font-size="10.00">combine_pdb_level_files</text>
<text text-anchor="middle" x="1835" y="-226" font-family="sans" font-size="10.00">uniprot_id: P07550</text>
</g>
<!-- 25&#45;&gt;24 -->
<g id="edge50" class="edge">
<title>25&#45;&gt;24</title>
<path fill="none" stroke="grey" stroke-width="2" d="M1785.02,-215.93C1754.87,-205.59 1715.7,-192.12 1681,-180 1680.9,-179.97 1680.81,-179.93 1680.71,-179.9"/>
<polygon fill="grey" stroke="grey" stroke-width="2" points="1682.1,-176.68 1671.5,-176.67 1679.78,-183.28 1682.1,-176.68"/>
</g>
<!-- 26&#45;&gt;17 -->
<g id="edge35" class="edge">
<title>26&#45;&gt;17</title>
<path fill="none" stroke="grey" stroke-width="2" d="M1689.47,-146.34C1686.62,-145.48 1683.78,-144.69 1681,-144 1574.75,-117.7 1448.39,-103.35 1371.21,-96.43"/>
<polygon fill="grey" stroke="grey" stroke-width="2" points="1371.39,-92.94 1361.12,-95.55 1370.78,-99.91 1371.39,-92.94"/>
</g>
<!-- 27 -->
<g id="node28" class="node">
<title>27</title>
<path fill="none" stroke="#59d856" stroke-width="2" stroke-dasharray="5,2" d="M2046.5,-252C2046.5,-252 1933.5,-252 1933.5,-252 1927.5,-252 1921.5,-246 1921.5,-240 1921.5,-240 1921.5,-228 1921.5,-228 1921.5,-222 1927.5,-216 1933.5,-216 1933.5,-216 2046.5,-216 2046.5,-216 2052.5,-216 2058.5,-222 2058.5,-228 2058.5,-228 2058.5,-240 2058.5,-240 2058.5,-246 2052.5,-252 2046.5,-252"/>
<text text-anchor="middle" x="1990" y="-237" font-family="sans" font-size="10.00">combine_pdb_level_files</text>
<text text-anchor="middle" x="1990" y="-226" font-family="sans" font-size="10.00">uniprot_id: P0DP23</text>
</g>
<!-- 27&#45;&gt;26 -->
<g id="edge52" class="edge">
<title>27&#45;&gt;26</title>
<path fill="none" stroke="grey" stroke-width="2" d="M1921.11,-217.74C1881.32,-208.51 1830.2,-195.94 1776.39,-179.97"/>
<polygon fill="grey" stroke="grey" stroke-width="2" points="1777.25,-176.58 1766.67,-177.06 1775.24,-183.28 1777.25,-176.58"/>
</g>
<!-- 28&#45;&gt;17 -->
<g id="edge36" class="edge">
<title>28&#45;&gt;17</title>
<path fill="none" stroke="grey" stroke-width="2" d="M1784.49,-146.25C1781.64,-145.41 1778.79,-144.65 1776,-144 1634.92,-111.12 1465.41,-98.45 1371.5,-93.7"/>
<polygon fill="grey" stroke="grey" stroke-width="2" points="1371.42,-90.2 1361.26,-93.2 1371.08,-97.19 1371.42,-90.2"/>
</g>
<!-- 29 -->
<g id="node30" class="node">
<title>29</title>
<path fill="none" stroke="#59d856" stroke-width="2" stroke-dasharray="5,2" d="M2201.5,-252C2201.5,-252 2088.5,-252 2088.5,-252 2082.5,-252 2076.5,-246 2076.5,-240 2076.5,-240 2076.5,-228 2076.5,-228 2076.5,-222 2082.5,-216 2088.5,-216 2088.5,-216 2201.5,-216 2201.5,-216 2207.5,-216 2213.5,-222 2213.5,-228 2213.5,-228 2213.5,-240 2213.5,-240 2213.5,-246 2207.5,-252 2201.5,-252"/>
<text text-anchor="middle" x="2145" y="-237" font-family="sans" font-size="10.00">combine_pdb_level_files</text>
<text text-anchor="middle" x="2145" y="-226" font-family="sans" font-size="10.00">uniprot_id: P38398</text>
</g>
<!-- 29&#45;&gt;28 -->
<g id="edge54" class="edge">
<title>29&#45;&gt;28</title>
<path fill="none" stroke="grey" stroke-width="2" d="M2076.18,-217.68C2073.42,-217.1 2070.68,-216.54 2068,-216 1983.82,-199.02 1958.75,-202.64 1871.41,-179.87"/>
<polygon fill="grey" stroke="grey" stroke-width="2" points="1872.17,-176.45 1861.61,-177.27 1870.38,-183.21 1872.17,-176.45"/>
</g>
<!-- 30&#45;&gt;17 -->
<g id="edge37" class="edge">
<title>30&#45;&gt;17</title>
<path fill="none" stroke="grey" stroke-width="2" d="M1879.24,-146.12C1876.48,-145.33 1873.71,-144.61 1871,-144 1777.7,-123.16 1503.03,-103.76 1371.63,-95.37"/>
<polygon fill="grey" stroke="grey" stroke-width="2" points="1371.48,-91.85 1361.27,-94.71 1371.03,-98.84 1371.48,-91.85"/>
</g>
<!-- 31 -->
<g id="node32" class="node">
<title>31</title>
<path fill="none" stroke="#59d856" stroke-width="2" stroke-dasharray="5,2" d="M2356.5,-252C2356.5,-252 2243.5,-252 2243.5,-252 2237.5,-252 2231.5,-246 2231.5,-240 2231.5,-240 2231.5,-228 2231.5,-228 2231.5,-222 2237.5,-216 2243.5,-216 2243.5,-216 2356.5,-216 2356.5,-216 2362.5,-216 2368.5,-222 2368.5,-228 2368.5,-228 2368.5,-240 2368.5,-240 2368.5,-246 2362.5,-252 2356.5,-252"/>
<text text-anchor="middle" x="2300" y="-237" font-family="sans" font-size="10.00">combine_pdb_level_files</text>
<text text-anchor="middle" x="2300" y="-226" font-family="sans" font-size="10.00">uniprot_id: P43246</text>
</g>
<!-- 31&#45;&gt;30 -->
<g id="edge56" class="edge">
<title>31&#45;&gt;30</title>
<path fill="none" stroke="grey" stroke-width="2" d="M2231.21,-217.53C2228.44,-217 2225.69,-216.49 2223,-216 2112.59,-196.11 2079.82,-206.77 1966.34,-179.78"/>
<polygon fill="grey" stroke="grey" stroke-width="2" points="1967.11,-176.37 1956.57,-177.41 1965.46,-183.17 1967.11,-176.37"/>
</g>
<!-- 32&#45;&gt;17 -->
<g id="edge38" class="edge">
<title>32&#45;&gt;17</title>
<path fill="none" stroke="grey" stroke-width="2" d="M777.5,-146.23C780.36,-145.4 783.21,-144.64 786,-144 941.35,-108.46 1128.61,-96.72 1228.69,-92.87"/>
<polygon fill="grey" stroke="grey" stroke-width="2" points="1228.82,-96.36 1238.68,-92.5 1228.56,-89.37 1228.82,-96.36"/>
</g>
<!-- 33 -->
<g id="node34" class="node">
<title>33</title>
<path fill="none" stroke="#59d856" stroke-width="2" stroke-dasharray="5,2" d="M373.5,-252C373.5,-252 260.5,-252 260.5,-252 254.5,-252 248.5,-246 248.5,-240 248.5,-240 248.5,-228 248.5,-228 248.5,-222 254.5,-216 260.5,-216 260.5,-216 373.5,-216 373.5,-216 379.5,-216 385.5,-222 385.5,-228 385.5,-228 385.5,-240 385.5,-240 385.5,-246 379.5,-252 373.5,-252"/>
<text text-anchor="middle" x="317" y="-237" font-family="sans" font-size="10.00">combine_pdb_level_files</text>
<text text-anchor="middle" x="317" y="-226" font-family="sans" font-size="10.00">uniprot_id: P51580</text>
</g>
<!-- 33&#45;&gt;32 -->
<g id="edge58" class="edge">
<title>33&#45;&gt;32</title>
<path fill="none" stroke="grey" stroke-width="2" d="M385.78,-217.47C388.55,-216.95 391.3,-216.46 394,-216 521.87,-194.19 559.71,-209.58 690.45,-179.8"/>
<polygon fill="grey" stroke="grey" stroke-width="2" points="691.5,-183.15 700.45,-177.48 689.91,-176.33 691.5,-183.15"/>
</g>
<!-- 34&#45;&gt;17 -->
<g id="edge39" class="edge">
<title>34&#45;&gt;17</title>
<path fill="none" stroke="grey" stroke-width="2" d="M872.52,-146.3C875.37,-145.45 878.22,-144.67 881,-144 1001.09,-115.06 1144.59,-101.26 1228.67,-95.2"/>
<polygon fill="grey" stroke="grey" stroke-width="2" points="1229.14,-98.68 1238.87,-94.48 1228.65,-91.7 1229.14,-98.68"/>
</g>
<!-- 35 -->
<g id="node36" class="node">
<title>35</title>
<path fill="none" stroke="#59d856" stroke-width="2" stroke-dasharray="5,2" d="M528.5,-252C528.5,-252 415.5,-252 415.5,-252 409.5,-252 403.5,-246 403.5,-240 403.5,-240 403.5,-228 403.5,-228 403.5,-222 409.5,-216 415.5,-216 415.5,-216 528.5,-216 528.5,-216 534.5,-216 540.5,-222 540.5,-228 540.5,-228 540.5,-240 540.5,-240 540.5,-246 534.5,-252 528.5,-252"/>
<text text-anchor="middle" x="472" y="-237" font-family="sans" font-size="10.00">combine_pdb_level_files</text>
<text text-anchor="middle" x="472" y="-226" font-family="sans" font-size="10.00">uniprot_id: P60484</text>
</g>
<!-- 35&#45;&gt;34 -->
<g id="edge60" class="edge">
<title>35&#45;&gt;34</title>
<path fill="none" stroke="grey" stroke-width="2" d="M540.8,-217.57C543.57,-217.03 546.31,-216.5 549,-216 650.57,-197.09 680.83,-205.36 785.41,-179.86"/>
<polygon fill="grey" stroke="grey" stroke-width="2" points="786.56,-183.18 795.42,-177.37 784.87,-176.39 786.56,-183.18"/>
</g>
<!-- 36&#45;&gt;17 -->
<g id="edge40" class="edge">
<title>36&#45;&gt;17</title>
<path fill="none" stroke="grey" stroke-width="2" d="M967.55,-146.42C970.39,-145.54 973.23,-144.72 976,-144 1061.61,-121.72 1162.5,-106.98 1228.67,-98.82"/>
<polygon fill="grey" stroke="grey" stroke-width="2" points="1229.49,-102.25 1238.99,-97.57 1228.64,-95.3 1229.49,-102.25"/>
</g>
<!-- 37 -->
<g id="node38" class="node">
<title>37</title>
<path fill="none" stroke="#59d856" stroke-width="2" stroke-dasharray="5,2" d="M683.5,-252C683.5,-252 570.5,-252 570.5,-252 564.5,-252 558.5,-246 558.5,-240 558.5,-240 558.5,-228 558.5,-228 558.5,-222 564.5,-216 570.5,-216 570.5,-216 683.5,-216 683.5,-216 689.5,-216 695.5,-222 695.5,-228 695.5,-228 695.5,-240 695.5,-240 695.5,-246 689.5,-252 683.5,-252"/>
<text text-anchor="middle" x="627" y="-237" font-family="sans" font-size="10.00">combine_pdb_level_files</text>
<text text-anchor="middle" x="627" y="-226" font-family="sans" font-size="10.00">uniprot_id: P63165</text>
</g>
<!-- 37&#45;&gt;36 -->
<g id="edge62" class="edge">
<title>37&#45;&gt;36</title>
<path fill="none" stroke="grey" stroke-width="2" d="M695.83,-217.74C698.59,-217.15 701.32,-216.57 704,-216 779.46,-200 801.91,-201.32 880.5,-179.93"/>
<polygon fill="grey" stroke="grey" stroke-width="2" points="881.67,-183.24 890.38,-177.2 879.8,-176.49 881.67,-183.24"/>
</g>
<!-- 38&#45;&gt;17 -->
<g id="edge41" class="edge">
<title>38&#45;&gt;17</title>
<path fill="none" stroke="grey" stroke-width="2" d="M1062.67,-151.19C1105.59,-140.31 1175.8,-122.5 1228.75,-109.07"/>
<polygon fill="grey" stroke="grey" stroke-width="2" points="1229.92,-112.38 1238.75,-106.53 1228.2,-105.6 1229.92,-112.38"/>
</g>
<!-- 39 -->
<g id="node40" class="node">
<title>39</title>
<path fill="none" stroke="#59d856" stroke-width="2" stroke-dasharray="5,2" d="M838.5,-252C838.5,-252 725.5,-252 725.5,-252 719.5,-252 713.5,-246 713.5,-240 713.5,-240 713.5,-228 713.5,-228 713.5,-222 719.5,-216 725.5,-216 725.5,-216 838.5,-216 838.5,-216 844.5,-216 850.5,-222 850.5,-228 850.5,-228 850.5,-240 850.5,-240 850.5,-246 844.5,-252 838.5,-252"/>
<text text-anchor="middle" x="782" y="-237" font-family="sans" font-size="10.00">combine_pdb_level_files</text>
<text text-anchor="middle" x="782" y="-226" font-family="sans" font-size="10.00">uniprot_id: P63279</text>
</g>
<!-- 39&#45;&gt;38 -->
<g id="edge64" class="edge">
<title>39&#45;&gt;38</title>
<path fill="none" stroke="grey" stroke-width="2" d="M849.24,-215.93C884.33,-206.72 928.11,-194.76 975.47,-180.06"/>
<polygon fill="grey" stroke="grey" stroke-width="2" points="976.81,-183.3 985.31,-176.98 974.72,-176.62 976.81,-183.3"/>
</g>
<!-- 40&#45;&gt;17 -->
<g id="edge42" class="edge">
<title>40&#45;&gt;17</title>
<path fill="none" stroke="grey" stroke-width="2" d="M1192.74,-143.88C1211.82,-134.47 1235.68,-122.71 1256.05,-112.67"/>
<polygon fill="grey" stroke="grey" stroke-width="2" points="1257.71,-115.75 1265.13,-108.19 1254.61,-109.47 1257.71,-115.75"/>
</g>
<!-- 41 -->
<g id="node42" class="node">
<title>41</title>
<path fill="none" stroke="#59d856" stroke-width="2" stroke-dasharray="5,2" d="M993.5,-252C993.5,-252 880.5,-252 880.5,-252 874.5,-252 868.5,-246 868.5,-240 868.5,-240 868.5,-228 868.5,-228 868.5,-222 874.5,-216 880.5,-216 880.5,-216 993.5,-216 993.5,-216 999.5,-216 1005.5,-222 1005.5,-228 1005.5,-228 1005.5,-240 1005.5,-240 1005.5,-246 999.5,-252 993.5,-252"/>
<text text-anchor="middle" x="937" y="-237" font-family="sans" font-size="10.00">combine_pdb_level_files</text>
<text text-anchor="middle" x="937" y="-226" font-family="sans" font-size="10.00">uniprot_id: Q9BQB6</text>
</g>
<!-- 41&#45;&gt;40 -->
<g id="edge66" class="edge">
<title>41&#45;&gt;40</title>
<path fill="none" stroke="grey" stroke-width="2" d="M990.78,-215.97C1027.1,-204.46 1074.64,-189.4 1109.74,-178.29"/>
<polygon fill="grey" stroke="grey" stroke-width="2" points="1110.82,-181.62 1119.29,-175.26 1108.7,-174.94 1110.82,-181.62"/>
</g>
<!-- 42&#45;&gt;17 -->
<g id="edge43" class="edge">
<title>42&#45;&gt;17</title>
<path fill="none" stroke="grey" stroke-width="2" d="M1264.62,-143.7C1270.14,-135.47 1276.85,-125.48 1282.93,-116.42"/>
<polygon fill="grey" stroke="grey" stroke-width="2" points="1285.85,-118.36 1288.52,-108.1 1280.04,-114.46 1285.85,-118.36"/>
</g>
<!-- 43 -->
<g id="node44" class="node">
<title>43</title>
<path fill="none" stroke="#59d856" stroke-width="2" stroke-dasharray="5,2" d="M1148.5,-252C1148.5,-252 1035.5,-252 1035.5,-252 1029.5,-252 1023.5,-246 1023.5,-240 1023.5,-240 1023.5,-228 1023.5,-228 1023.5,-222 1029.5,-216 1035.5,-216 1035.5,-216 1148.5,-216 1148.5,-216 1154.5,-216 1160.5,-222 1160.5,-228 1160.5,-228 1160.5,-240 1160.5,-240 1160.5,-246 1154.5,-252 1148.5,-252"/>
<text text-anchor="middle" x="1092" y="-237" font-family="sans" font-size="10.00">combine_pdb_level_files</text>
<text text-anchor="middle" x="1092" y="-226" font-family="sans" font-size="10.00">uniprot_id: Q9H3S4</text>
</g>
<!-- 43&#45;&gt;42 -->
<g id="edge68" class="edge">
<title>43&#45;&gt;42</title>
<path fill="none" stroke="grey" stroke-width="2" d="M1131.39,-215.88C1153.56,-206.24 1181.42,-194.12 1204.88,-183.92"/>
<polygon fill="grey" stroke="grey" stroke-width="2" points="1206.52,-187.02 1214.3,-179.83 1203.73,-180.6 1206.52,-187.02"/>
</g>
</g>
</svg>
